<svg width="11" height="21" viewBox="0 0 11 21" fill="none" xmlns="http://www.w3.org/2000/svg">
<path d="M9.96271 20.019C10.4276 19.5732 10.459 18.8176 10.0329 18.3313L3.023 10.333L10.0329 2.33471C10.4235 1.88892 10.4297 1.21684 10.0699 0.764557L9.96271 0.646992C9.49781 0.201204 8.77548 0.234056 8.34933 0.720369L0.633162 9.52584C0.628239 9.53146 0.623377 9.53711 0.618576 9.5428L0.703308 9.45246C0.651026 9.50259 0.604228 9.55664 0.562945 9.61379C0.547768 9.63501 0.533322 9.65646 0.519634 9.67825C0.505667 9.70031 0.49239 9.72312 0.479904 9.74628C0.468572 9.7674 0.458053 9.78835 0.448172 9.80953C0.436509 9.83454 0.425534 9.8604 0.415475 9.88658C0.406505 9.90976 0.398291 9.93322 0.390807 9.95687C0.38348 9.98032 0.376848 10.0037 0.370912 10.0273C0.364217 10.0534 0.358467 10.0798 0.353587 10.1064C0.348657 10.1337 0.344549 10.1612 0.341355 10.1887C0.338969 10.2088 0.337113 10.2292 0.335758 10.2496C0.333926 10.2778 0.332999 10.3057 0.333008 10.3337C0.333027 10.3611 0.333953 10.3887 0.335783 10.4162C0.337112 10.4368 0.338969 10.4573 0.341326 10.4776C0.344549 10.5049 0.348658 10.5323 0.353681 10.5596C0.358468 10.5862 0.364217 10.6126 0.370839 10.6389C0.376848 10.6623 0.383481 10.6857 0.390807 10.7089C0.398291 10.7328 0.406504 10.7563 0.415449 10.7795C0.425533 10.8056 0.43651 10.8315 0.448399 10.857C0.458053 10.8777 0.468573 10.8986 0.479732 10.9193C0.49239 10.9429 0.505667 10.9657 0.519734 10.9881C0.533322 11.0096 0.547769 11.031 0.562975 11.0521C0.604228 11.1094 0.651026 11.1634 0.703308 11.2136L0.618576 11.1232C0.623377 11.1289 0.628239 11.1346 0.633162 11.1402L8.34933 19.9456C8.77548 20.432 9.49781 20.4648 9.96271 20.019Z" fill="#4A4A4A"/>
</svg>
