<svg width="11" height="21" viewBox="0 0 11 21" fill="none" xmlns="http://www.w3.org/2000/svg">
<path d="M1.0368 0.980975C0.571911 1.42676 0.540504 2.18238 0.966657 2.66869L7.97651 10.667L0.966657 18.6653C0.576017 19.1111 0.569854 19.7832 0.929626 20.2354L1.0368 20.353C1.5017 20.7988 2.22403 20.7659 2.65018 20.2796L10.3664 11.4742C10.3713 11.4685 10.3761 11.4629 10.3809 11.4572L10.2962 11.5475C10.3485 11.4974 10.3953 11.4434 10.4366 11.3862C10.4517 11.365 10.4662 11.3435 10.4799 11.3217C10.4938 11.2997 10.5071 11.2769 10.5196 11.2537C10.5309 11.2326 10.5415 11.2117 10.5513 11.1905C10.563 11.1655 10.574 11.1396 10.584 11.1134C10.593 11.0902 10.6012 11.0668 10.6087 11.0431C10.616 11.0197 10.6227 10.9963 10.6286 10.9727C10.6353 10.9466 10.641 10.9202 10.6459 10.8936C10.6509 10.8663 10.655 10.8388 10.6582 10.8113C10.6605 10.7912 10.6624 10.7708 10.6638 10.7504C10.6656 10.7222 10.6665 10.6943 10.6665 10.6663C10.6665 10.6389 10.6656 10.6113 10.6637 10.5838C10.6624 10.5632 10.6605 10.5427 10.6582 10.5224C10.655 10.4951 10.6509 10.4677 10.6458 10.4404C10.641 10.4138 10.6353 10.3874 10.6287 10.3611C10.6227 10.3377 10.616 10.3143 10.6087 10.2911C10.6012 10.2672 10.593 10.2437 10.5841 10.2205C10.574 10.1944 10.563 10.1685 10.5511 10.143C10.5415 10.1223 10.5309 10.1014 10.5198 10.0807C10.5071 10.0571 10.4938 10.0343 10.4798 10.0119C10.4662 9.99044 10.4517 9.969 10.4365 9.94795C10.3953 9.89063 10.3485 9.83658 10.2962 9.78645L10.3809 9.87678C10.3761 9.8711 10.3713 9.86544 10.3664 9.85982L2.65018 1.05435C2.22403 0.568041 1.5017 0.535188 1.0368 0.980975Z" fill="#4A4A4A"/>
</svg>
