<svg width="56" height="93" viewBox="0 0 56 93" fill="none" xmlns="http://www.w3.org/2000/svg">
<path d="M28.7926 26.5505L28.7768 26.0043C28.7689 25.8269 28.7531 25.6652 28.7413 25.4936L28.7216 25.2392C28.7137 25.1564 28.7019 25.0736 28.692 24.9908L28.6269 24.4919L28.5461 24.0029C28.4337 23.3502 28.3075 22.7073 28.13 22.0823C25.6297 13.2088 20.3155 7.99121 20.3155 7.99121C19.7397 9.82703 15.8768 16.4131 15.5928 16.9495L14.7114 18.5743C14.4136 19.1244 14.1159 19.6825 13.8201 20.2563C13.5302 20.8301 13.2404 21.4177 12.9761 22.029C12.7119 22.6442 12.4733 23.2812 12.2741 23.9457C12.0789 24.6122 11.9231 25.3102 11.8679 26.0339C11.8403 26.3948 11.8245 26.7596 11.8443 27.1263L11.8482 27.2624L11.8502 27.3314C11.8541 27.4418 11.8521 27.3669 11.8521 27.3925L11.8541 27.4004L11.8561 27.4142L11.86 27.4438L11.8876 27.6765L11.9172 27.9092L11.933 28.0255C11.9389 28.063 11.9507 28.1182 11.9586 28.1616C11.9961 28.3528 12.0355 28.5402 12.0769 28.7275C12.0947 28.8221 12.1243 28.9069 12.1499 28.9917L12.3116 29.5044C12.3412 29.5872 12.3786 29.6701 12.4102 29.7529C12.4812 29.9165 12.5443 30.0822 12.6212 30.2419C12.9387 30.8768 13.3311 31.4625 13.7826 31.987C14.248 32.5017 14.7686 32.9532 15.3345 33.3239C15.9024 33.6907 16.5176 33.9668 17.1407 34.1699C17.7717 34.3552 18.4185 34.4538 19.0515 34.4637C18.4579 34.233 17.8979 33.9687 17.3892 33.6375C17.263 33.5547 17.1407 33.462 17.0185 33.3752C16.9593 33.3318 16.8962 33.2924 16.839 33.2431L16.6694 33.0972L16.4999 32.9532L16.4151 32.8822L16.0266 32.4938C15.6382 32.056 15.2931 31.5966 15.021 31.1036C14.7587 30.6047 14.5457 30.094 14.4097 29.5655C14.3781 29.4334 14.3525 29.2993 14.3229 29.1672C14.3111 29.1021 14.2933 29.0371 14.2835 28.97L14.2598 28.7709L14.2342 28.5717C14.2263 28.5047 14.2164 28.4376 14.2184 28.3785C14.2164 28.2562 14.2145 28.1359 14.2105 28.0156C14.2085 27.9841 14.2066 27.9624 14.2066 27.923L14.2125 27.8047L14.2204 27.572L14.2283 27.3373L14.2302 27.3077V27.286C14.2322 27.3077 14.2302 27.2269 14.2322 27.3314L14.2381 27.2841L14.2519 27.1855C14.2795 26.9291 14.3347 26.6748 14.3939 26.4184C14.5221 25.9097 14.7074 25.4009 14.9381 24.8961C15.1629 24.3894 15.4311 23.8865 15.721 23.3817C16.0148 22.8789 16.3283 22.3721 16.6556 21.8634C16.981 21.3546 17.3241 20.8419 17.6633 20.3194C18.0064 19.7988 18.3515 19.2664 18.6906 18.7241C19.0298 18.1819 19.3611 17.6219 19.6845 17.05C19.8422 16.7602 20.0039 16.4742 20.1518 16.1745C20.2267 16.0266 20.3036 15.8807 20.3766 15.7289L20.5935 15.2734C20.7434 14.948 20.8873 14.6148 21.0253 14.2776C21.1318 14.4728 21.2363 14.666 21.3428 14.8593L21.7707 15.6618L22.1947 16.4663C22.4747 17.0027 22.7488 17.543 23.0209 18.0813C23.2851 18.6236 23.5553 19.1619 23.8077 19.7081C23.9358 19.9802 24.066 20.2504 24.1863 20.5245L24.3716 20.9346L24.5511 21.3448C24.7936 21.891 25.0144 22.4411 25.2313 22.9913C25.2866 23.1293 25.3339 23.2674 25.3871 23.4054C25.4364 23.5434 25.4916 23.6815 25.539 23.8195C25.6316 24.0955 25.7342 24.3716 25.815 24.6477L25.9452 25.0618L26.1167 25.6829L26.164 25.888C26.1956 26.0221 26.2331 26.166 26.2607 26.2962L26.3336 26.6748L26.3533 26.7694L26.3672 26.8838L26.4204 27.3472V27.361L26.4224 27.3689C26.4224 27.3787 26.4204 27.2999 26.4224 27.3353V27.361L26.4243 27.4083L26.4303 27.5069L26.4519 27.9013C26.4519 28.4297 26.3888 28.9602 26.2686 29.4886C26.1345 30.0132 25.9373 30.5278 25.6809 31.0267C25.4147 31.5197 25.0835 31.985 24.7049 32.4248C24.3105 32.8487 23.8648 33.2411 23.3679 33.5862L22.9834 33.8268C22.8552 33.9135 22.7192 33.9707 22.5851 34.0457C22.451 34.1166 22.3149 34.1935 22.1651 34.2488L21.7313 34.4361C22.0468 34.4104 22.3583 34.4065 22.6758 34.3375C23.0012 34.2921 23.3068 34.1935 23.6243 34.1068C24.2395 33.8958 24.8409 33.6059 25.4029 33.2352C25.957 32.8566 26.4638 32.3991 26.9193 31.8825C27.3649 31.358 27.7356 30.7664 28.0472 30.1334C28.1852 29.8101 28.3272 29.4847 28.4219 29.1436C28.5382 28.8064 28.5993 28.4554 28.6762 28.1044C28.7019 27.9289 28.7235 27.7514 28.7433 27.572L28.759 27.4379L28.765 27.3708L28.7689 27.3373C28.7709 27.3689 28.7689 27.2841 28.7689 27.29L28.7709 27.2683L28.7906 26.8029L28.7945 26.6866L28.7926 26.5505Z" fill="#383838"/>
<path d="M25.6301 81.5521V45.1079C25.6301 42.1895 23.252 39.8252 20.3198 39.8252C18.8823 39.8252 17.5789 40.3931 16.6226 41.3159C17.1648 41.1306 17.7465 41.028 18.3539 41.028C21.2861 41.028 23.6641 43.3943 23.6641 46.3107V83.7113H48.1529L25.6301 81.5521Z" fill="#383838"/>
</svg>
