<svg width="200" height="123" viewBox="0 0 200 123" fill="none" xmlns="http://www.w3.org/2000/svg">
<path d="M99.0781 0.227813C98.7864 0.540313 98.7187 0.847606 98.5156 2.69656C97.7343 9.71219 96.3958 14.3684 92.651 23.0768C92.1406 24.2591 91.125 26.6236 90.3854 28.3424C87.5 35.0664 86.5104 38.2226 86.3698 41.1653C86.2083 44.4414 87.4375 47.0247 90.1302 49.0664C91.9218 50.4205 94.776 51.707 97.375 52.3424C97.7031 52.4153 98.0156 52.5195 98.0781 52.5507C98.2812 52.6757 99.0208 55.8372 99.1875 57.3372C99.2656 57.9778 99.2656 58.2434 99.1771 58.5403C98.8854 59.608 97.276 60.2434 93.2656 60.858C90.5052 61.2851 90.0521 61.4101 89.4635 61.9518C88.75 62.5924 88.5573 63.5091 88.6927 65.6497C88.7448 66.3476 88.8333 67.8164 88.901 68.8997C88.9687 69.9882 89.0625 71.8841 89.1146 73.1132C89.3906 80.0455 89.8073 82.5351 91.2187 85.4882C91.4948 86.0559 91.6979 86.5455 91.6823 86.5716C91.6562 86.5872 91.125 86.2799 90.4948 85.8736C89.1458 85.0039 87.2604 84.0195 84.9583 82.9674C82.1406 81.6809 80.9323 80.9778 79.7187 79.9257C78.5364 78.9049 77.5625 77.5768 75.6927 74.4153C73.526 70.7539 72.427 69.2539 70.7343 67.5924C69.1823 66.0768 67.9062 65.1861 65.9323 64.2174C63.2343 62.8945 60.4583 62.3059 57.026 62.2955C53.3437 62.2955 49.8854 63.0143 45.9114 64.6028C43.5 65.5664 41.6458 66.4986 37.7708 68.6914C33.5104 71.108 31.4114 71.9518 28.5052 72.4361C26.9323 72.6914 25.7448 72.7747 23.4687 72.7747C21.1041 72.7747 20.0625 72.7226 13.9062 72.3111C8.42705 71.9414 2.2708 71.5976 1.19788 71.5976C0.593716 71.5976 0.348924 71.6289 0.281215 71.7122C-0.229201 72.3268 5.0833 73.1132 15.0364 73.9049C19.5677 74.2643 20.7031 74.3268 23.5104 74.3268C26.4375 74.332 27.5625 74.2486 29.4687 73.9049C32.4791 73.3476 34.5 72.5299 39.4062 69.8632C41.9323 68.4882 44.0989 67.3997 45.5312 66.7955C48.5416 65.5039 51.5885 64.6549 54.3802 64.3111C55.7604 64.1393 58.4323 64.1393 59.7187 64.3111C63.802 64.8476 67.3958 66.6341 70.052 69.4466C71.4062 70.8736 72.4531 72.3476 74.3489 75.5143C76.1458 78.4934 76.9218 79.5872 78.125 80.7747C79.5468 82.2018 80.8437 82.9986 84.4583 84.7018C85.7968 85.3268 87.1771 85.9986 87.5208 86.1861C94.4583 89.9674 99.0364 95.2122 101.234 101.879C101.964 104.092 102.323 106.368 102.125 107.53C101.922 108.681 101.562 108.962 100.312 108.894C98.5521 108.79 96.2604 107.712 91.5468 104.759C87.1979 102.03 84.9166 100.79 82.6093 99.8736C79.625 98.6914 77.151 98.1861 72.375 97.7903C67.4531 97.3789 65.7812 97.0403 61.1354 95.5195C55.7187 93.733 53.7187 93.2695 51.1041 93.1861C49.0364 93.1184 47.8645 93.3111 46.5364 93.957C45.526 94.457 44.9895 94.9466 44.5989 95.7278C44.3073 96.3268 44.2968 96.3841 44.3333 97.0507C44.3645 97.6497 44.4062 97.832 44.6614 98.2955C45.2552 99.4361 46.6666 100.54 48.9739 101.691C50.5833 102.499 51.5573 102.915 56.3125 104.806C62.25 107.186 64.4427 108.144 68.0833 109.973C73.3229 112.598 76.7916 114.806 81.8958 118.759C85.3437 121.421 86.9843 122.301 89.1979 122.691C90.2604 122.874 92.5781 122.816 94.0625 122.566C96.8958 122.077 102.995 120.306 109.901 117.973C114.917 116.275 117.964 114.848 121.286 112.66C126.068 109.509 132.047 103.967 138.365 96.8216C143.75 90.7434 146.021 87.0195 146.922 82.8007C147.198 81.5091 147.208 79.4101 146.927 78.4778C146.677 77.5872 146.385 77.0351 145.922 76.5716C145.193 75.8424 144.177 75.5455 143.005 75.7226C139.495 76.2434 132.443 80.608 119.312 90.3789C114.365 94.0664 112.443 95.3841 110.656 96.3164C109.307 97.0247 108.458 97.3111 107.693 97.3111C106.656 97.3216 106.26 97.0091 104.984 95.1445C102.818 91.9778 101.484 90.8841 96.6198 88.2747C93.651 86.6809 93.4583 86.5195 92.7343 85.0455C92.2083 83.9622 91.8489 82.9518 91.5468 81.6601C91.0677 79.6236 90.8802 77.9153 90.625 73.0299C90.5312 71.2434 90.3854 68.9674 90.3125 67.9726C90.2343 66.9778 90.1771 65.5559 90.1718 64.8164C90.1614 63.2643 90.2135 63.1028 90.8177 62.8372C91.0104 62.7539 92.0885 62.5247 93.2239 62.332C99.3229 61.3007 100.865 60.2851 100.656 57.4049C100.599 56.6184 100.328 55.1132 100 53.7643C99.901 53.332 99.8437 52.9622 99.8698 52.9309C99.9323 52.8736 100.698 52.9622 100.833 53.0455C100.875 53.082 100.984 53.8841 101.057 54.832C101.51 60.2747 102.156 63.7434 102.969 65.1861C103.896 66.7955 105.286 67.332 107.729 67.0143C108.307 66.9361 109.641 66.7018 110.708 66.4934C112.854 66.0611 114.625 65.9205 115.026 66.1393C115.479 66.3841 115.578 66.6497 115.573 67.5768C115.562 68.5872 115.505 69.0039 114.901 72.2278C113.651 78.9153 113.161 82.8684 113.156 86.4622C113.146 88.1549 113.172 88.5768 113.297 89.0299C113.5 89.7643 113.802 90.2539 114.214 90.5299C114.505 90.7226 114.651 90.7591 115.151 90.7591C115.891 90.7591 116.51 90.4882 117.516 89.7226C119.01 88.5872 120.682 86.6236 122.859 83.4049C125.312 79.7903 125.781 79.1184 126.542 78.1236C127.661 76.6757 129.792 74.5611 131.729 72.9882C135.932 69.5559 136.802 68.4466 139.807 62.6914C141.307 59.8111 142.12 58.5507 143.146 57.5195C144.411 56.2486 145.687 55.8424 146.771 56.3841C148.036 56.9986 148.724 58.5976 148.818 61.1184C148.891 63.2174 148.599 65.0768 147.625 68.5611C147.323 69.6497 147.057 70.7539 147.031 71.0143C146.906 72.1445 147.609 72.8111 148.63 72.5299C148.818 72.4778 149.839 71.9518 150.896 71.3424C153.693 69.7591 155.469 68.983 157.599 68.4361C159.302 67.9986 160.328 67.8736 162.094 67.8736C164.552 67.8736 166.526 68.2539 169.656 69.332C174.302 70.9466 175.208 71.2434 176.089 71.4518C180.047 72.4153 183.698 72.3945 188.521 71.3789C192.698 70.4986 197.74 68.6809 199.302 67.483C199.651 67.2226 199.729 67.1132 199.745 66.8632C199.771 66.5924 199.74 66.5351 199.521 66.4257C199.208 66.2539 198.536 66.2539 197.875 66.4153C197.599 66.4726 196.443 66.8893 195.307 67.332C189.656 69.5247 186.115 70.332 182.172 70.332C178.958 70.332 177.271 69.9622 172.281 68.1601C167.583 66.4674 165.427 65.9934 162.307 66.0039C158.094 66.0091 154.615 67.1132 149.849 69.9466C149.411 70.207 149.042 70.3841 149.026 70.3424C149.01 70.3007 149.151 69.707 149.339 69.0247C150.687 64.0976 150.74 60.2747 149.495 57.6393C148.943 56.457 148.021 55.5247 147.047 55.1549C146.292 54.8684 145.141 54.8841 144.411 55.1861C143.198 55.6914 142.141 56.5611 141.109 57.8893C140.318 58.9205 139.807 59.7799 138.203 62.707C135.573 67.5507 134.781 68.5403 131.016 71.6809C127.224 74.8476 126.286 75.9518 122.432 81.7122C121.276 83.4466 119.943 85.3528 119.453 85.957C117.651 88.2122 115.687 89.7747 115 89.5143C114.432 89.2903 114.312 87.4309 114.656 84.0872C114.974 80.9882 115.37 78.5768 116.375 73.5351C117.25 69.1341 117.333 68.582 117.281 67.3007C117.255 66.4726 117.224 66.2643 117.031 65.8528C116.411 64.5195 115.146 64.0716 112.812 64.3841C112.255 64.4622 111.031 64.6653 110.083 64.8476C107.089 65.4309 106.031 65.4882 105.312 65.108C104.974 64.9414 104.625 64.5039 104.365 63.9153C103.854 62.7851 103.208 59.1445 102.786 54.9674C102.604 53.1341 102.604 53.108 103.078 53.2018C103.224 53.2226 103.724 53.2018 104.203 53.1601C105.901 52.983 106.552 52.4153 106.562 51.1289C106.562 50.6132 105.469 43.9414 105.01 41.6914C104.589 39.5976 104.203 38.5455 103.719 38.1289C103.391 37.8528 103.182 37.7955 102.828 37.8528C102.057 38.0039 101.552 39.1653 101.193 41.6861C100.906 43.6809 100.839 44.7747 100.807 48.0039C100.792 49.7382 100.755 51.1705 100.75 51.1861C100.729 51.2018 100.406 51.1705 100.026 51.1132C99.5573 51.0455 99.3125 50.9778 99.2708 50.8841C99.1614 50.6809 97.5521 45.4257 97.2083 44.1809C96.5208 41.6341 96.2448 39.7382 96.2448 37.5507C96.2448 34.7434 96.7448 32.5195 97.8958 30.1966C98.8177 28.3424 100.104 26.7434 100.974 26.3528C102.042 25.8841 102.995 26.6497 104.859 29.4361C106.562 31.9986 107.583 34.332 108.104 36.8528C108.391 38.2643 108.49 39.2695 108.49 40.9101C108.49 43.1653 108.281 44.4674 107.474 47.2122C106.87 49.2747 106.771 49.832 106.906 50.3945C107.021 50.9101 107.469 51.3789 107.953 51.5299C109.005 51.8424 111.042 51.3476 113.406 50.2018C116.109 48.9049 117.552 47.6132 118.474 45.7122C119.198 44.1861 119.448 42.6601 119.37 40.2174C119.312 38.4414 119.161 37.1549 118.76 35.1236C118.005 31.2851 116.896 28.0403 115.078 24.2903C113.422 20.8789 112.255 18.9518 107.609 11.9153C104.297 6.9049 103.333 5.38927 101.948 3.0299C100.562 0.665314 100.365 0.352813 100.104 0.165313C99.7604 -0.074271 99.3489 -0.0534377 99.0781 0.227813ZM101.031 4.17573C102.349 6.47781 103.833 8.87885 106.375 12.8007C109.005 16.8372 109.599 17.7799 110.562 19.3736C114.516 25.9257 116.479 30.9726 117.385 36.9361C117.646 38.6184 117.708 41.6861 117.516 42.8632C117.198 44.7747 116.589 45.9153 115.26 47.0611C113.792 48.332 110.453 49.8893 108.937 50.0143L108.406 50.0559V49.7643C108.406 49.5924 108.599 48.8424 108.833 48.0872C109.807 44.9049 110.036 43.5716 110.036 40.9361C110.036 38.7382 109.917 37.7539 109.406 35.7226C108.76 33.1445 107.693 30.9361 105.766 28.1757C104.354 26.1601 103.401 25.2539 102.344 24.9257C101.203 24.5716 100.26 24.9153 99.0521 26.1341C97.1093 28.0976 95.6406 31.2174 95.026 34.7018C94.8437 35.7747 94.7656 38.2747 94.8906 39.5455C95.1458 42.1132 95.6146 44.1549 97.0468 48.8007C97.3489 49.7695 97.5781 50.582 97.5521 50.6028C97.4739 50.6705 95.3958 50.0403 94.3958 49.6445C89.5677 47.7226 87.4531 44.9049 87.7708 40.8111C88.0052 37.9049 88.9271 35.1809 92.4271 27.1132C94.8593 21.5143 95.7812 19.2434 96.7656 16.4674C98.2291 12.2799 99.2291 7.9101 99.6823 3.57677C99.7916 2.52469 99.8489 2.16531 99.901 2.21219C99.9271 2.23302 100.437 3.11323 101.031 4.17573ZM103.281 40.7486C103.609 42.1757 104.656 48.9622 104.766 50.3841C104.818 51.0768 104.818 51.1132 104.641 51.2122C104.542 51.2643 104.047 51.332 103.557 51.3528C102.802 51.3997 102.646 51.3789 102.552 51.2695C102.385 51.0768 102.318 46.1653 102.443 44.1341C102.583 41.8684 102.87 39.8684 103.036 39.9674C103.078 39.9934 103.187 40.3476 103.281 40.7486ZM144.641 77.233C145.755 77.8059 146.156 80.1028 145.615 82.7122C144.964 85.8059 142.844 89.4205 139.214 93.6236C136.651 96.5768 130.88 102.499 128.182 104.936C122.349 110.191 118.448 112.65 112.141 115.04C109.458 116.061 101.568 118.775 99.0937 119.53C93.3489 121.301 90.2812 121.556 87.6927 120.483C86.5364 119.993 85.6875 119.462 83.7448 117.973C77.9062 113.519 75.7916 112.072 71.875 109.879C67.6979 107.535 63.526 105.676 56.6875 103.098C50.2448 100.671 48.5364 99.8736 47.0156 98.5768C46.5156 98.1445 46.0781 97.4466 46.0781 97.0768C46.0781 96.3111 47.1093 95.608 48.677 95.3164C49.6614 95.1236 51.5468 95.1393 52.9375 95.3476C54.875 95.6341 56.3802 96.0403 61.2604 97.6132C63.4739 98.332 65.9166 98.9726 67.3854 99.2174C68.4843 99.3997 70.5885 99.6289 73.3437 99.858C76.3958 100.098 78.4062 100.473 80.6302 101.202C83.1823 102.035 85.2448 103.072 89.6979 105.754C94.1614 108.436 96.6354 109.671 98.6354 110.181C99.2291 110.342 99.6146 110.384 100.437 110.384C101.417 110.384 101.521 110.368 101.964 110.15C103.661 109.316 104.026 107.082 103.12 103.223C102.068 98.7122 99.625 94.1966 96.3698 90.733C95.9687 90.3111 95.6823 89.957 95.7291 89.957C95.7916 89.957 96.3698 90.2695 97.026 90.6497C100.599 92.7018 101.88 93.8268 103.896 96.6132C104.609 97.608 105.344 98.358 105.875 98.6236C107.922 99.6705 110.531 98.7539 115.437 95.233C116.156 94.707 118.245 93.1653 120.068 91.8007C125.276 87.9049 128.01 85.9414 132.318 83.0507C136.495 80.2486 138.766 78.858 140.578 77.9882C142.635 77.0143 143.781 76.8007 144.641 77.233Z" fill="#383838"/>
</svg>
