<svg width="35" height="27" viewBox="0 0 35 27" fill="none" xmlns="http://www.w3.org/2000/svg">
<path d="M3.78408 23.9965C1.80992 21.8997 0.75 19.5479 0.75 15.7357C0.75 9.02732 5.45925 3.01474 12.3075 0.0419922L14.0191 2.68316C7.627 6.14083 6.37733 10.6277 5.879 13.4567C6.90825 12.9239 8.25567 12.738 9.57625 12.8607C13.0339 13.1807 15.7594 16.0193 15.7594 19.5479C15.7594 21.3271 15.0526 23.0334 13.7946 24.2914C12.5365 25.5495 10.8302 26.2562 9.05108 26.2562C8.06718 26.2476 7.09481 26.0434 6.19058 25.6555C5.28634 25.2675 4.46831 24.7036 3.78408 23.9965ZM22.9508 23.9965C20.9766 21.8997 19.9167 19.5479 19.9167 15.7357C19.9167 9.02732 24.6259 3.01474 31.4742 0.0419922L33.1858 2.68316C26.7937 6.14083 25.544 10.6277 25.0457 13.4567C26.0749 12.9239 27.4223 12.738 28.7429 12.8607C32.2006 13.1807 34.9261 16.0193 34.9261 19.5479C34.9261 21.3271 34.2193 23.0334 32.9613 24.2914C31.7032 25.5495 29.9969 26.2562 28.2178 26.2562C27.2338 26.2476 26.2615 26.0434 25.3572 25.6555C24.453 25.2675 23.635 24.7036 22.9508 23.9965Z" fill="#97917A"/>
</svg>
