<svg width="41" height="41" viewBox="0 0 41 41" fill="none" xmlns="http://www.w3.org/2000/svg">
<circle cx="20.5" cy="20.7979" r="19.5" stroke="#2AABED"/>
<path d="M14.7222 22.0085L24.7111 30.7973C24.8266 30.8995 24.9666 30.97 25.1175 31.0017C25.2684 31.0334 25.4249 31.0253 25.5717 30.9782C25.7185 30.9312 25.8506 30.8467 25.9549 30.7332C26.0592 30.6197 26.1322 30.4809 26.1667 30.3307L30.3445 12.0862C30.3795 11.9291 30.3712 11.7654 30.3205 11.6126C30.2697 11.4599 30.1784 11.3237 30.0564 11.2188C29.9343 11.1138 29.786 11.044 29.6274 11.0167C29.4687 10.9895 29.3057 11.0058 29.1556 11.064L8.64445 19.1196C7.82223 19.4418 7.93334 20.6418 8.80001 20.8196L14.7222 22.0085Z" stroke="#2AABED" stroke-linecap="round" stroke-linejoin="round"/>
<path d="M14.7222 22.0082L29.8444 11.0859" stroke="#2AABED" stroke-linecap="round" stroke-linejoin="round"/>
<path d="M19.7111 26.3977L16.2444 29.8643C16.1207 29.9899 15.9625 30.0759 15.7898 30.1114C15.6172 30.1468 15.4379 30.1301 15.2747 30.0634C15.1116 29.9968 14.9719 29.8831 14.8735 29.7368C14.7752 29.5906 14.7225 29.4184 14.7222 29.2421V22.0088" stroke="#2AABED" stroke-linecap="round" stroke-linejoin="round"/>
</svg>
