<svg width="39" height="41" viewBox="0 0 39 41" fill="none" xmlns="http://www.w3.org/2000/svg">
<path d="M26.869 11.3092L26.8689 11.3092C25.194 9.676 22.1342 8.81409 19.4964 8.79784L19.5026 7.79786C22.2781 7.81495 25.6353 8.70969 27.567 10.5932L26.869 11.3092ZM26.869 11.3092C28.5058 12.9048 29.1419 15.7653 29.1633 18.848M26.869 11.3092L29.1633 18.848M20.9882 23.7079C20.945 24.206 20.9452 24.206 20.9453 24.206L20.9457 24.206L20.9465 24.2061L20.9483 24.2063L20.9527 24.2066L20.9646 24.2074C20.9687 24.2077 20.9732 24.208 20.9783 24.2082C20.9849 24.2086 20.9923 24.2089 21.0006 24.2092C21.0296 24.2103 21.0689 24.211 21.1163 24.21C21.2101 24.208 21.3399 24.199 21.4866 24.1707C21.7709 24.1159 22.1756 23.9769 22.4712 23.6132L22.4712 23.6132L22.475 23.6084L23.22 22.6684L23.22 22.6684L23.2241 22.6633C23.4298 22.3966 24.0255 22.1484 24.6627 22.5034C25.2838 22.8571 25.8847 23.2419 26.4702 23.6564C26.7417 23.8569 27.1609 24.1935 27.5209 24.4868C27.6978 24.6308 27.8578 24.7624 27.9756 24.8592L27.9806 24.8633C28.0395 24.9116 28.0881 24.9516 28.1223 24.9795L28.1648 25.014C28.1687 25.017 28.1734 25.0208 28.1783 25.0246C28.1788 25.025 28.1793 25.0254 28.1798 25.0258C28.3664 25.1865 28.4641 25.3672 28.4952 25.5538C28.5273 25.7468 28.495 25.9881 28.348 26.2702L28.3262 26.3122L28.3246 26.3175C27.9551 26.9466 27.4947 27.5205 26.9563 28.0106L26.9013 28.0569C26.4161 28.465 25.9769 28.6639 25.5861 28.7095C25.4058 28.7298 25.2237 28.7198 25.0474 28.6802L25.0316 28.6582L24.8633 28.6103C24.1222 28.3994 22.832 27.8599 20.6281 26.6434L20.6263 26.6424C19.3708 25.9562 18.1755 25.1651 17.0534 24.2774L17.0519 24.2762C16.4943 23.8386 15.9592 23.3651 15.4564 22.8657C15.4562 22.8654 15.4559 22.8651 15.4556 22.8648L15.2373 22.6465L20.9882 23.7079ZM20.9882 23.7079L20.945 24.206L20.9042 24.2025L20.8646 24.1923C18.1108 23.4898 16.3709 21.7434 15.3276 20.1938C14.8059 19.419 14.4544 18.6882 14.2328 18.1499C14.1219 17.8804 14.0431 17.6581 13.9915 17.5012C13.9657 17.4228 13.9467 17.3606 13.9338 17.317C13.9274 17.2952 13.9225 17.278 13.9191 17.2658L13.915 17.2511L13.9138 17.2466L13.9134 17.245L13.9132 17.2444C13.9132 17.2442 13.9131 17.244 14.3965 17.1162M20.9882 23.7079L14.3965 17.1162M14.3965 17.1162C13.8984 17.1595 13.8984 17.1593 13.8983 17.1591L13.8983 17.1587L13.8982 17.1579L13.8981 17.1561L13.8977 17.1517L13.8969 17.1398C13.8963 17.1304 13.8957 17.1183 13.8951 17.1037C13.894 17.0746 13.8933 17.0353 13.8944 16.988C13.8965 16.8941 13.9057 16.7642 13.9343 16.6176C13.9898 16.3328 14.1303 15.9287 14.4958 15.6338L14.4985 15.6316L14.4985 15.6316L15.4368 14.8849L15.4416 14.8812L15.4416 14.8812C15.7039 14.6776 15.9532 14.0811 15.5957 13.4413C15.2438 12.8197 14.8599 12.2167 14.4458 11.6347C14.0045 11.0575 13.5499 10.4907 13.0822 9.9347L13.074 9.92496L13.0741 9.92486C12.9414 9.75865 12.7524 9.64682 12.5428 9.61051L12.4989 9.60291C12.2733 9.58428 12.0467 9.63357 11.8486 9.74516L11.7792 9.78421L11.7661 9.78684C11.1296 10.1621 10.5558 10.6342 10.0615 11.1857C10.0508 11.1988 10.04 11.2106 10.0296 11.2211C9.63734 11.7018 9.44269 12.1336 9.39239 12.5235L9.39112 12.5333L9.38947 12.543C9.38299 12.5813 9.38104 12.6202 9.38368 12.6589L9.38483 12.6759V12.6929C9.38483 12.8175 9.39938 12.9412 9.42842 13.0635L9.45122 13.0811L9.49615 13.2408C9.70513 13.9838 10.2456 15.2698 11.461 17.4748L11.4619 17.4763C12.1486 18.7321 12.9381 19.9284 13.8252 21.0492L13.8265 21.0508C14.2646 21.609 14.7347 22.1422 15.2367 22.646L14.3965 17.1162ZM14.3965 17.1162L13.8984 17.1595L13.9021 17.2023L13.9131 17.244L14.3965 17.1162ZM29.1633 18.848L30.1633 18.841M29.1633 18.848L30.1633 18.841M30.1633 18.841C30.1415 15.7037 29.5069 12.4843 27.5671 10.5932L30.1633 18.841ZM13.8513 9.29551C13.7038 9.11223 13.5244 8.95997 13.3235 8.84494L13.3885 8.7148L12.6984 8.61924C12.2637 8.55906 11.8218 8.63436 11.4324 8.83377L11.4083 8.83858L11.3375 8.87929C10.5807 9.31396 9.90138 9.86681 9.3199 10.5149C9.30401 10.5301 9.28706 10.5483 9.2703 10.5698C9.26931 10.5711 9.26833 10.5723 9.26735 10.5736C9.26691 10.5741 9.26647 10.5747 9.26604 10.5752L9.25904 10.5831L9.25815 10.5848C8.78671 11.1614 8.48471 11.761 8.40182 12.3862C8.38451 12.4929 8.37883 12.6011 8.38488 12.709C8.38659 12.9846 8.4321 13.2555 8.51846 13.5165L8.56666 13.6623L8.58134 13.6736C8.84811 14.5378 9.43501 15.8707 10.5849 17.9568C11.2979 19.2605 12.118 20.5035 13.0404 21.669C13.502 22.257 13.9982 22.82 14.529 23.3525L14.5296 23.3531L14.7496 23.5731L14.7508 23.5742C15.2809 24.1009 15.8452 24.6003 16.4337 25.0623C17.5995 25.9844 18.8413 26.8064 20.1456 27.5193C22.2253 28.6672 23.5582 29.2521 24.4191 29.5211L24.4317 29.5387L24.5878 29.5898C24.9459 29.7069 25.3251 29.7455 25.6995 29.703L25.7008 29.7028C26.331 29.6297 26.9369 29.3258 27.5115 28.8501C27.5143 28.8482 27.517 28.8463 27.5197 28.8444L27.5341 28.8357L27.5693 28.8043C28.2274 28.2174 28.7824 27.5254 29.2196 26.7678L29.2487 26.7173L29.2575 26.6879C29.4691 26.2633 29.5532 25.819 29.4816 25.3894C29.407 24.9419 29.1702 24.5525 28.8136 24.2521L28.674 24.1345H28.6689C28.6524 24.121 28.6346 24.1063 28.6155 24.0907C28.4974 23.9936 28.3337 23.8591 28.1525 23.7114C27.7929 23.4186 27.3536 23.0653 27.0599 22.8488L27.06 22.8487L27.0522 22.8432C26.4395 22.4092 25.809 22.0053 25.1555 21.6333L25.1521 21.6314C24.0913 21.0386 22.9495 21.385 22.4344 22.0497L21.6936 22.9844C21.6057 23.0913 21.4637 23.1567 21.2973 23.1888C21.2181 23.204 21.146 23.2091 21.0944 23.2102C21.082 23.2105 21.0711 23.2105 21.0618 23.2105C18.6443 22.5781 17.103 21.0402 16.1571 19.6353C15.6809 18.928 15.3594 18.2596 15.1576 17.7692C15.0568 17.5244 14.9862 17.325 14.9414 17.1888C14.9197 17.1226 14.904 17.0715 14.8939 17.0373C14.8939 17.0294 14.8939 17.0204 14.8942 17.0106C14.8953 16.9593 14.9004 16.8877 14.9158 16.809C14.9481 16.6435 15.0139 16.5012 15.1227 16.4128C15.1231 16.4125 15.1235 16.4122 15.1238 16.412L16.0574 15.6691C16.7166 15.1551 17.0621 14.0138 16.4678 12.952L16.4666 12.9499C16.0961 12.2953 15.6918 11.6604 15.2554 11.0478L15.2505 11.0409L15.2454 11.0343C14.7943 10.4439 14.3294 9.86416 13.8513 9.29551ZM9.3925 10.4568L9.39205 10.4571L9.3925 10.4568ZM27.5892 28.7842C27.5883 28.7851 27.5873 28.7862 27.586 28.7875C27.5904 28.783 27.5962 28.777 27.5892 28.7842ZM9.94761 11.2886C9.94708 11.2889 9.94686 11.2891 9.94716 11.2889L9.94761 11.2886ZM14.8949 17.0765L14.8949 17.0765L14.8949 17.0765ZM25.7769 12.3552L25.7765 12.3547C24.6038 11.0774 22.5221 10.423 20.5364 10.2775L20.4633 11.2748C22.344 11.4127 24.1188 12.0281 25.0395 13.0306C25.4948 13.5278 25.8738 14.2897 26.1333 15.1639C26.391 16.0323 26.5184 16.97 26.4996 17.7864L27.4994 17.8093C27.5207 16.8823 27.3773 15.8409 27.0919 14.8793C26.8082 13.9235 26.3716 13.0046 25.7769 12.3552ZM23.815 13.961L23.8136 13.9596C23.0897 13.214 22.0787 12.8564 20.9478 12.7969L20.9346 12.7962H20.9215H20.8915V13.7962H20.9081C21.8605 13.8486 22.5982 14.1437 23.0954 14.6555C23.5936 15.1732 23.8757 15.9318 23.922 16.9261L24.921 16.8796C24.8673 15.7277 24.533 14.7066 23.815 13.961ZM34.7765 23.2195V23.2229H35.7765V23.2195H34.7765ZM28.6485 34.417C28.4274 34.4737 28.2438 34.5207 28.1064 34.5653C27.5989 34.729 22.7288 35.9551 16.3853 35.418L16.1301 35.3964L15.9635 35.5909C15.2574 36.4149 14.3208 37.4824 13.6487 38.2091C13.4382 38.4353 13.2367 38.6639 13.0496 38.8761C12.9574 38.9807 12.8688 39.0813 12.7843 39.1757C12.52 39.4708 12.2876 39.7154 12.0629 39.9039C11.8392 40.0916 11.6444 40.205 11.4611 40.2588C11.2871 40.3099 11.0975 40.315 10.8635 40.2421L10.8625 40.2418C10.5734 40.1525 10.3898 39.878 10.2853 39.4851C10.2361 39.3001 10.2137 39.1193 10.2042 38.9825C10.1994 38.915 10.1979 38.8603 10.1976 38.8238C10.1974 38.8056 10.1975 38.7922 10.1977 38.7841L10.1978 38.7768L10.1978 38.7765L10.1978 38.7762L10.1978 38.7761L10.1978 38.7758L10.1979 38.7753L10.1981 38.7677L10.1982 38.7587L10.2048 34.732L10.2057 34.2312H9.7694C5.31154 32.9548 3.12242 30.0193 2.04279 26.7462C0.947295 23.4251 1.00205 19.775 1.05473 17.1696C1.1588 12.0207 2.16021 7.99843 4.87925 5.27056C6.71275 3.59168 9.2987 2.60312 11.8662 2.0324C14.1612 1.52226 16.3985 1.35519 17.9808 1.30927L18.4994 1.30281C19.0267 1.29624 19.4518 1.30323 19.7439 1.3118C19.89 1.31609 20.0027 1.32076 20.0784 1.32433C20.1162 1.32611 20.1447 1.32762 20.1635 1.32865L20.1842 1.32984L20.189 1.33013L20.1899 1.33019L20.19 1.33019L20.19 1.33019L20.19 1.33019L20.2046 1.33112L20.2194 1.33118C29.0527 1.36902 32.9463 4.24488 33.8407 5.0703L33.8465 5.07559L33.8524 5.0807C36.9546 7.76926 38.8119 13.8923 37.5836 23.8852L37.5835 23.8854C37.004 28.6133 34.9476 31.155 32.9202 32.5775C31.2474 33.7511 29.5998 34.1733 28.6485 34.417Z" stroke="#9747FF"/>
</svg>
